<?xml version="1.0" standalone="no"?>
<!DOCTYPE svg PUBLIC "-//W3C//DTD SVG 20010904//EN"
 "http://www.w3.org/TR/2001/REC-SVG-20010904/DTD/svg10.dtd">
<svg version="1.0" xmlns="http://www.w3.org/2000/svg"
 width="192.000000pt" height="192.000000pt" viewBox="0 0 192.000000 192.000000"
 preserveAspectRatio="xMidYMid meet">
<metadata>
Created by potrace 1.11, written by Peter Selinger 2001-2013
</metadata>
<g transform="translate(0.000000,192.000000) scale(0.100000,-0.100000)"
fill="#000000" stroke="none">
<path d="M141 1901 c-6 -10 -7 -21 -4 -25 3 -3 -2 -6 -13 -6 -16 0 -16 -2 -4
-10 14 -9 33 6 25 20 -2 4 2 7 10 7 8 0 13 -5 12 -11 -1 -6 4 -10 11 -8 8 1
11 -2 7 -8 -5 -8 -11 -8 -20 0 -9 8 -14 6 -19 -5 -3 -10 1 -15 12 -15 10 0 4
-7 -15 -16 -18 -9 -35 -25 -38 -36 -5 -14 -12 -17 -28 -12 -18 6 -20 5 -10 -8
10 -12 10 -15 -2 -15 -8 0 -11 5 -8 10 4 7 -1 8 -13 4 -16 -6 -16 -4 3 12 18
15 20 20 8 25 -8 3 -14 0 -12 -6 1 -6 -4 -13 -12 -16 -10 -3 -11 0 -5 9 7 12
5 12 -9 0 -16 -12 -17 -76 -17 -822 1 -445 3 -816 6 -824 4 -8 10 -13 15 -10
4 3 5 13 2 22 -6 15 -5 16 9 3 12 -11 13 -19 5 -28 -7 -9 -7 -16 2 -25 10 -9
11 -8 5 7 -6 15 -4 17 6 11 9 -5 11 -4 6 3 -4 7 -2 12 4 12 6 0 9 4 5 9 -3 5
-1 13 5 16 6 4 10 3 9 -2 -4 -20 2 -24 18 -12 9 8 14 9 10 2 -4 -6 4 -20 19
-32 15 -12 22 -21 16 -21 -6 0 -9 -8 -6 -17 5 -16 4 -16 -6 -3 -10 13 -11 12
-6 -3 3 -10 6 -21 6 -24 0 -3 7 0 15 7 8 7 13 16 10 19 -2 4 2 8 10 8 10 0 12
-4 5 -12 -5 -7 -6 -16 -2 -20 4 -5 1 -4 -7 0 -11 6 -13 4 -8 -8 3 -9 1 -19 -5
-23 -7 -5 -8 -2 -3 7 5 8 5 11 0 7 -4 -4 -14 -3 -21 3 -9 7 -12 6 -9 -8 1 -10
8 -17 14 -15 6 1 11 -2 11 -7 0 -6 310 -10 821 -11 494 0 818 4 815 9 -8 13 4
42 14 36 5 -3 12 0 16 6 5 8 3 9 -6 4 -9 -5 -10 -1 -6 16 l7 24 -14 -24 c-8
-14 -17 -19 -21 -13 -3 6 0 13 6 15 10 4 9 8 -2 16 -10 7 -11 11 -3 11 7 0 11
6 9 13 -1 6 -1 9 2 4 2 -4 13 -12 25 -19 21 -11 21 -10 7 7 -10 12 -10 16 -2
11 7 -4 23 -1 37 8 29 19 39 20 29 4 -4 -7 -3 -8 4 -4 7 4 12 2 12 -5 0 -7 7
-4 14 7 13 16 15 137 15 824 0 443 -4 812 -7 820 -4 8 -13 16 -21 18 -11 2
-12 0 -3 -10 8 -11 7 -14 -7 -14 -13 0 -17 6 -13 20 5 17 3 17 -18 -4 l-23
-23 -18 24 c-17 21 -24 20 -20 -4 1 -5 -3 -6 -9 -2 -8 5 -7 11 1 21 6 8 9 15
5 15 -3 1 -10 2 -15 3 -5 0 -13 5 -18 10 -5 5 -3 6 5 2 8 -5 12 0 12 14 0 12
-4 19 -8 16 -16 -10 -10 33 6 46 15 12 16 11 4 -4 -15 -18 -7 -42 9 -32 6 3 8
-6 4 -23 -4 -24 -4 -25 5 -8 10 19 10 19 6 -3 -3 -14 0 -20 6 -15 7 4 8 1 3
-8 -8 -12 -6 -12 8 0 18 15 23 26 7 16 -9 -5 -12 8 -9 31 0 4 -5 10 -13 15 -7
4 -13 16 -13 26 0 19 -25 25 -37 8 -5 -6 -8 -6 -8 2 0 10 -174 13 -795 13
-767 0 -795 0 -804 -19z m24 -101 c3 -6 -1 -7 -9 -4 -18 7 -21 14 -7 14 6 0
13 -4 16 -10z m1684 -1627 c-3 -19 2 -25 14 -15 8 7 17 6 30 -3 10 -7 14 -16
9 -19 -6 -3 -13 1 -16 10 -6 15 -8 15 -24 2 -28 -24 -39 -28 -39 -14 0 9 7 12
16 8 13 -5 14 -3 4 10 -7 8 -10 18 -6 21 8 9 13 9 12 0z m-39 -34 c0 -5 -4 -9
-8 -9 -5 0 -9 7 -9 15 0 8 4 12 9 9 4 -3 8 -9 8 -15z m-1629 -112 c-10 -9 -11
-8 -5 6 3 10 9 15 12 12 3 -3 0 -11 -7 -18z m1584 14 c3 -6 -5 -15 -17 -21
-21 -10 -21 -10 -6 3 10 8 15 17 11 20 -3 4 -4 7 0 7 3 0 8 -4 12 -9z"/>
<path d="M76 1842 c-3 -5 1 -9 9 -9 8 0 12 4 9 9 -3 4 -7 8 -9 8 -2 0 -6 -4
-9 -8z"/>
<path d="M112 1824 c-12 -8 -28 -12 -35 -8 -9 6 -9 5 0 -8 7 -8 12 -17 10 -19
-1 -2 3 2 10 9 6 8 20 20 30 27 25 20 13 19 -15 -1z"/>
<path d="M1828 1807 c-18 -14 -10 -41 8 -29 8 5 17 44 10 42 -1 0 -9 -6 -18
-13z"/>
<path d="M73 119 c-1 -10 2 -21 8 -24 5 -3 6 1 3 10 -5 11 -2 14 10 9 9 -3 13
-10 10 -15 -3 -5 2 -6 10 -3 14 5 14 8 -1 22 -22 23 -39 23 -40 1z"/>
<path d="M1835 100 c-3 -6 1 -7 9 -4 18 7 21 14 7 14 -6 0 -13 -4 -16 -10z"/>
</g>
</svg>
